<svg xmlns="http://www.w3.org/2000/svg" viewBox="0 0 32 25.86"><title>full-web-on</title><path d="M30.55,28.93H1.63A1.62,1.62,0,0,1,0,27.42V4.77a1.66,1.66,0,0,1,1.63-1.7H30.55A1.52,1.52,0,0,1,32,4.77V27.42a1.36,1.36,0,0,1-1.45,1.51ZM2,26.84H30V5.07H2Z" transform="translate(0 -3.07)"/><path d="M7.05,16.66A1.46,1.46,0,0,1,5.6,15.15V10.43A1.47,1.47,0,0,1,7.05,8.92h4.52A1.46,1.46,0,0,1,13,10.43a1.3,1.3,0,0,1-1.45,1.32H8.5v3.4A1.59,1.59,0,0,1,7.05,16.66Zm18.08,6.61H20.61a1.46,1.46,0,0,1-1.45-1.51,1.36,1.36,0,0,1,1.45-1.51h3.07v-3.4a1.46,1.46,0,0,1,1.45-1.51,1.37,1.37,0,0,1,1.45,1.51v4.91c-.18.75-.73,1.51-1.45,1.51Z" transform="translate(0 -3.07)"/><path d="M3.25,6.28" transform="translate(0 -3.07)"/></svg>