<svg id="图层_3" data-name="图层 3" xmlns="http://www.w3.org/2000/svg" viewBox="0 0 28.57 22.36"><title>full-web-on</title><path d="M29,27.18H3.16a1.42,1.42,0,0,1-1.45-1.3V6.29A1.45,1.45,0,0,1,3.16,4.82H29a1.33,1.33,0,0,1,1.29,1.47V25.88A1.2,1.2,0,0,1,29,27.18ZM4.28,24.78l23.46,0V7.25H4.25Z" transform="translate(-1.71 -4.82)"/><path d="M7.33,17.24A1.35,1.35,0,0,1,6,15.87V11.61a1.35,1.35,0,0,1,1.37-1.37H11.6A1.34,1.34,0,0,1,13,11.61,1.2,1.2,0,0,1,11.6,12.8H8.69v3.07A1.47,1.47,0,0,1,7.33,17.24Zm17.07,6H20.13a1.35,1.35,0,0,1-1.37-1.36,1.26,1.26,0,0,1,1.37-1.37H23V17.41A1.35,1.35,0,0,1,24.4,16a1.25,1.25,0,0,1,1.36,1.37v4.44C25.59,22.53,25.08,23.21,24.4,23.21Z" transform="translate(-1.71 -4.82)"/></svg>