<svg xmlns="http://www.w3.org/2000/svg" viewBox="0 0 32 25.86"><title>full-web-off</title><path d="M30.55,28.93H1.63A1.62,1.62,0,0,1,0,27.42V4.77a1.66,1.66,0,0,1,1.63-1.7H30.55A1.52,1.52,0,0,1,32,4.77V27.42a1.36,1.36,0,0,1-1.45,1.51ZM2,26.84H30V5.07H2Z" transform="translate(0 -3.07)"/><path d="M11.57,16.66H7.05a1.46,1.46,0,0,1-1.44-1.51,1.3,1.3,0,0,1,1.44-1.32h3.07v-3.4a1.47,1.47,0,0,1,1.45-1.51c.91,0,1.27.76,1.27,1.51v4.72A1.44,1.44,0,0,1,11.57,16.66Zm9,6.61a1.46,1.46,0,0,1-1.45-1.51V17a1.46,1.46,0,0,1,1.45-1.51h4.52A1.46,1.46,0,0,1,26.58,17a1.37,1.37,0,0,1-1.45,1.51H22.06v3.21C21.88,22.51,21.33,23.27,20.61,23.27Z" transform="translate(0 -3.07)"/></svg>