<svg id="图层_2" data-name="图层 2" xmlns="http://www.w3.org/2000/svg" viewBox="0 0 30.65 24"><title>widescreen-on</title><path d="M8.77,6.57c-2.16,0-2.87.13-3.59.5A2.94,2.94,0,0,0,3.9,8.28c-.38.69-.52,1.36-.52,3.41v8.62c0,2.05.14,2.72.52,3.41a2.94,2.94,0,0,0,1.28,1.21c.72.37,1.43.5,3.59.5H23.24c2.15,0,2.86-.13,3.58-.5a2.94,2.94,0,0,0,1.28-1.21c.39-.69.52-1.36.52-3.41V11.69c0-2-.14-2.72-.52-3.41a2.94,2.94,0,0,0-1.28-1.21c-.72-.37-1.43-.5-3.58-.5ZM8.77,4H23.24c2.81,0,3.83.28,4.86.8a5.61,5.61,0,0,1,2.38,2.27c.55,1,.84,1.95.84,4.62v8.62c0,2.67-.29,3.64-.84,4.62A5.73,5.73,0,0,1,28.1,27.2c-1,.52-2.05.8-4.86.8H8.77c-2.82,0-3.84-.28-4.86-.8a5.58,5.58,0,0,1-2.39-2.27C1,24,.68,23,.68,20.31V11.69C.68,9,1,8.05,1.52,7.07A5.64,5.64,0,0,1,3.91,4.8C4.93,4.28,6,4,8.77,4ZM20.5,10.86,25.91,16l-5.4,5.14-1.8-1.71L22.31,16l-3.6-3.43Zm-9,0L6.09,16l5.39,5.14,1.81-1.71L9.69,16l3.6-3.43Z" transform="translate(-0.68 -4)"/></svg>