<svg xmlns="http://www.w3.org/2000/svg" viewBox="0 0 32 25.86"><title>widescreen-off</title><path d="M28.44,3.07H3.56A3.62,3.62,0,0,0,0,6.76V25.23a3.63,3.63,0,0,0,3.56,3.7H28.44A3.63,3.63,0,0,0,32,25.23V6.76a3.62,3.62,0,0,0-3.56-3.69ZM13.5,16.66l-5,5.23a.87.87,0,0,1-1.26,0L6,20.58a1,1,0,0,1,0-1.31L9.11,16,6,12.75a1,1,0,0,1,0-1.31l1.26-1.31a.87.87,0,0,1,1.26,0l5,5.23A.94.94,0,0,1,13.5,16.66ZM26,19.27a1,1,0,0,1,0,1.31l-1.26,1.31a.87.87,0,0,1-1.26,0l-5-5.23a.94.94,0,0,1,0-1.3l5-5.23a.87.87,0,0,1,1.26,0L26,11.44a1,1,0,0,1,0,1.31L22.89,16Z" transform="translate(0 -3.07)"/></svg>