<svg t="1550632323801" class="icon" style="" viewBox="0 0 1024 1024" version="1.1" xmlns="http://www.w3.org/2000/svg" p-id="2147" xmlns:xlink="http://www.w3.org/1999/xlink"><defs><style type="text/css"></style></defs><path d="M837.818182 186.181818H186.181818a93.090909 93.090909 0 0 0-93.090909 93.090909v465.454546a93.090909 93.090909 0 0 0 93.090909 93.090909h651.636364a93.090909 93.090909 0 0 0 93.090909-93.090909V279.272727a93.090909 93.090909 0 0 0-93.090909-93.090909z m-437.713455 408.343273a23.272727 23.272727 0 0 1 0 32.907636l-32.907636 32.907637a23.272727 23.272727 0 0 1-32.907636 0l-131.630546-131.630546a23.272727 23.272727 0 0 1 0-32.907636l131.630546-131.630546a23.272727 23.272727 0 0 1 32.907636 0l32.907636 32.907637a23.272727 23.272727 0 0 1 0 32.907636l-82.292363 82.292364 82.292363 82.245818z m421.236364-65.815273l-131.630546 131.630546a23.272727 23.272727 0 0 1-32.907636 0l-32.907636-32.907637a23.272727 23.272727 0 0 1 0-32.907636l82.292363-82.292364-82.292363-82.292363a23.272727 23.272727 0 0 1 0-32.907637l32.907636-32.907636a23.272727 23.272727 0 0 1 32.907636 0l131.630546 131.630545a23.365818 23.365818 0 0 1 0 32.954182z" p-id="2148"></path></svg>