<svg xmlns="http://www.w3.org/2000/svg" viewBox="0 0 32 25.86"><title>widescreen-on</title><path d="M28.44,3.07H3.56A3.62,3.62,0,0,0,0,6.76V25.23a3.63,3.63,0,0,0,3.56,3.7H28.44A3.63,3.63,0,0,0,32,25.23V6.76a3.62,3.62,0,0,0-3.56-3.69ZM11.73,19.27a1,1,0,0,1,0,1.31l-1.26,1.31a.87.87,0,0,1-1.26,0l-5-5.23a.94.94,0,0,1,0-1.3l5-5.23a.87.87,0,0,1,1.26,0l1.26,1.31a1,1,0,0,1,0,1.31L8.58,16Zm16.09-2.61-5,5.23a.87.87,0,0,1-1.26,0l-1.26-1.31a1,1,0,0,1,0-1.31L23.42,16l-3.15-3.27a1,1,0,0,1,0-1.3l1.26-1.31a.87.87,0,0,1,1.26,0l5,5.22A1,1,0,0,1,27.82,16.66Z" transform="translate(0 -3.07)"/></svg>